<svg  viewBox="0 0 42 42" xmlns="http://www.w3.org/2000/svg">
<mask id="mask0_4_17" style="mask-type:alpha" maskUnits="userSpaceOnUse" x="0" y="0" width="43" height="42">
<path d="M2.00456 39.2309C2.00599 39.3333 2.02759 39.4345 2.06812 39.5286C2.10865 39.6226 2.16732 39.7078 2.24077 39.7792C2.31422 39.8506 2.40103 39.9069 2.49622 39.9447C2.59141 39.9826 2.69313 40.0013 2.79556 39.9999H39.2026C39.3051 40.0015 39.4069 39.9828 39.5022 39.945C39.5975 39.9072 39.6844 39.851 39.758 39.7796C39.8316 39.7082 39.8903 39.6229 39.9309 39.5288C39.9715 39.4346 39.9931 39.3334 39.9946 39.2309V38.3129C40.0126 38.0359 40.0496 36.6559 39.1396 35.1289C38.5656 34.1659 37.7326 33.3349 36.6636 32.6569C35.3706 31.8369 33.7256 31.2439 31.7356 30.8869C30.7254 30.7447 29.7234 30.5498 28.7336 30.3029C26.1016 29.6309 25.8716 29.0359 25.8696 29.0299C25.8544 28.9711 25.8322 28.9144 25.8036 28.8609C25.7816 28.7509 25.7286 28.3329 25.8306 27.2139C26.0886 24.3709 27.6136 22.6909 28.8386 21.3409C29.2246 20.9159 29.5896 20.5129 29.8706 20.1189C31.0836 18.4189 31.1956 16.4839 31.2006 16.3639C31.2051 16.1513 31.1758 15.9393 31.1136 15.7359C30.9936 15.3659 30.7706 15.1359 30.6066 14.9659C30.5678 14.927 30.5301 14.887 30.4936 14.8459C30.4816 14.8319 30.4496 14.7939 30.4786 14.6029C30.5766 13.9876 30.6444 13.3678 30.6816 12.7459C30.7376 11.7439 30.7806 10.2459 30.5216 8.78689C30.4835 8.50822 30.4261 8.23254 30.3496 7.96189C30.0766 6.95789 29.6386 6.09989 29.0296 5.39189C28.9246 5.27689 26.3766 2.59189 18.9796 2.04189C17.9566 1.96589 16.9456 2.00689 15.9496 2.05789C15.655 2.06444 15.3619 2.10062 15.0746 2.16589C14.3106 2.36289 14.1066 2.84689 14.0536 3.11789C13.9646 3.56789 14.1206 3.91589 14.2236 4.14789C14.2386 4.18089 14.2576 4.22189 14.2246 4.32989C14.0536 4.59589 13.7826 4.83589 13.5076 5.06289C13.4276 5.12989 11.5736 6.72989 11.4716 8.81889C11.1966 10.4079 11.2166 12.8829 11.5416 14.5939C11.5616 14.6889 11.5886 14.8289 11.5436 14.9239C11.1936 15.2369 10.7976 15.5919 10.7986 16.4019C10.8026 16.4839 10.9156 18.4179 12.1286 20.1189C12.4086 20.5129 12.7736 20.9149 13.1586 21.3399L13.1606 21.3409C14.3856 22.6909 15.9106 24.3709 16.1686 27.2129C16.2696 28.3329 16.2166 28.7499 16.1956 28.8609C16.1665 28.9143 16.144 28.9711 16.1286 29.0299C16.1276 29.0359 15.8986 29.6289 13.2786 30.2999C11.7666 30.6869 10.2786 30.8849 10.2336 30.8899C8.29956 31.2169 6.66456 31.7959 5.37356 32.6109C4.30856 33.2839 3.47356 34.1179 2.89356 35.0879C1.96556 36.6379 1.99056 38.0499 2.00356 38.3079V39.2309H2.00456Z" fill="white" stroke="white" stroke-width="4" stroke-linejoin="round"/>
</mask>
<g mask="url(#mask0_4_17)">
<path d="M-2.99944 -3.00011H45.0006V44.9999H-2.99944V-3.00011Z" />
</g>
</svg>
