<svg viewBox="0 0 29 30" fill="none" xmlns="http://www.w3.org/2000/svg">
<path d="M27 5H18V30H29V7C29 6.46957 28.7893 5.96086 28.4142 5.58579C28.0391 5.21071 27.5304 5 27 5V5ZM22 22H20V20H22V22ZM22 17H20V15H22V17ZM22 12H20V10H22V12ZM26 22H24V20H26V22ZM26 17H24V15H26V17ZM26 12H24V10H26V12Z" />
<path d="M13.88 0H2.12C1.55774 0 1.01851 0.223356 0.620934 0.620934C0.223356 1.01851 0 1.55774 0 2.12V30H5V27H11V30H16V2.12C16 1.55774 15.7766 1.01851 15.3791 0.620934C14.9815 0.223356 14.4423 0 13.88 0V0ZM5 22H3V20H5V22ZM5 17H3V15H5V17ZM5 12H3V10H5V12ZM5 7H3V5H5V7ZM9 22H7V20H9V22ZM9 17H7V15H9V17ZM9 12H7V10H9V12ZM9 7H7V5H9V7ZM13 22H11V20H13V22ZM13 17H11V15H13V17ZM13 12H11V10H13V12ZM13 7H11V5H13V7Z" />
</svg>
