<svg viewBox="0 0 26 44" fill="none" xmlns="http://www.w3.org/2000/svg">
<path d="M24.8469 1.15151C24.4816 0.786489 24.0477 0.496892 23.57 0.2993C23.0923 0.101708 22.5802 0 22.0631 0C21.5459 0 21.0338 0.101708 20.5562 0.2993C20.0785 0.496892 19.6446 0.786489 19.2793 1.15151L1.15477 19.2249C0.788714 19.5891 0.498297 20.0218 0.300146 20.4982C0.101995 20.9745 0 21.4851 0 22.0008C0 22.5165 0.101995 23.0272 0.300146 23.5035C0.498297 23.9798 0.788714 24.4125 1.15477 24.7768L19.2793 42.8502C19.6448 43.2147 20.0788 43.5039 20.5565 43.7012C21.0341 43.8985 21.5461 44 22.0631 44C22.5801 44 23.092 43.8985 23.5697 43.7012C24.0473 43.5039 24.4813 43.2147 24.8469 42.8502C25.2125 42.4856 25.5025 42.0528 25.7003 41.5765C25.8982 41.1002 26 40.5897 26 40.0742C26 39.5586 25.8982 39.0481 25.7003 38.5718C25.5025 38.0955 25.2125 37.6628 24.8469 37.2982L9.52599 21.9811L24.8469 6.70346C26.3869 5.16781 26.3474 2.64778 24.8469 1.15151V1.15151Z" />
</svg>
