<svg viewBox="0 0 42 42" fill="none" xmlns="http://www.w3.org/2000/svg">
<path d="M8.44667 18.1767C11.8067 24.78 17.22 30.17 23.8233 33.5533L28.9567 28.42C29.5867 27.79 30.52 27.58 31.3367 27.86C33.95 28.7233 36.7733 29.19 39.6667 29.19C40.95 29.19 42 30.24 42 31.5233V39.6667C42 40.95 40.95 42 39.6667 42C17.7567 42 0 24.2433 0 2.33333C0 1.05 1.05 0 2.33333 0H10.5C11.7833 0 12.8333 1.05 12.8333 2.33333C12.8333 5.25 13.3 8.05 14.1633 10.6633C14.42 11.48 14.2333 12.39 13.58 13.0433L8.44667 18.1767Z" />
</svg>
